<svg xmlns="http://www.w3.org/2000/svg" viewBox="0 0 128 128" role="img" aria-label="RJ brand icon">
  <defs>
    <linearGradient id="bg" x1="12" y1="12" x2="116" y2="116" gradientUnits="userSpaceOnUse">
      <stop offset="0" stop-color="#2f62ff" />
      <stop offset="1" stop-color="#10b69c" />
    </linearGradient>
    <linearGradient id="stroke" x1="24" y1="24" x2="104" y2="104" gradientUnits="userSpaceOnUse">
      <stop offset="0" stop-color="#f8fbff" stop-opacity="0.95" />
      <stop offset="1" stop-color="#d8fff6" stop-opacity="0.85" />
    </linearGradient>
  </defs>

  <rect x="6" y="6" width="116" height="116" rx="30" fill="url(#bg)" />
  <rect x="6" y="6" width="116" height="116" rx="30" fill="none" stroke="rgba(255,255,255,0.35)" stroke-width="2" />

  <path d="M37 36h27c13 0 22 8 22 20 0 11-8 19-20 20l15 16H64L50 76h-3v16H37V36zm10 9v22h16c8 0 13-4 13-11 0-7-5-11-13-11H47z" fill="url(#stroke)" />
  <path d="M95 37v34c0 17-8 24-24 24-7 0-13-2-18-6l5-8c4 2 8 4 13 4 9 0 14-4 14-14V37h10z" fill="url(#stroke)" />

  <circle cx="98" cy="28" r="4" fill="#dffcf4" opacity="0.9" />
</svg>
